<svg class="md:w-[24px] md:h-[20px] w-[14px] h-[10px]" viewBox="0 0 48 48" fill="none" xmlns="http://www.w3.org/2000/svg"><path d="M24.0072 2C14.8224 2 12.1362 2.00948 11.614 2.0528C9.72916 2.20953 8.55627 2.50638 7.27848 3.14274C6.29374 3.63186 5.51712 4.19883 4.75065 4.99361C3.35476 6.44302 2.50876 8.22619 2.20251 10.3458C2.05362 11.3748 2.0103 11.5847 2.0015 16.8408C1.99812 18.5928 2.0015 20.8986 2.0015 23.9914C2.0015 33.1712 2.01166 35.8554 2.05565 36.3767C2.20793 38.2113 2.49556 39.3656 3.10468 40.6282C4.26877 43.045 6.49204 44.8593 9.11124 45.5363C10.0182 45.7698 11.0198 45.8985 12.3057 45.9594C12.8505 45.9831 18.4036 46 23.9601 46C29.5166 46 35.0731 45.9932 35.6044 45.9662C37.0934 45.8961 37.958 45.78 38.9139 45.5329C41.5501 44.8525 43.7327 43.0653 44.9205 40.6146C45.5178 39.3825 45.8207 38.1843 45.9577 36.4454C45.9875 36.0663 46 30.0219 46 23.9856C46 17.9483 45.9865 11.9151 45.9567 11.5359C45.8179 9.76903 45.5151 8.58093 44.8985 7.32513C44.3926 6.29713 43.8309 5.52944 43.0153 4.74448C41.5599 3.35396 39.7799 2.50774 37.6588 2.20174C36.6311 2.05314 36.4264 2.00914 31.1677 2H24.0072Z" fill="url(#paint0_radial_404_3127)"/><path d="M24.0072 2C14.8224 2 12.1362 2.00948 11.614 2.0528C9.72916 2.20953 8.55627 2.50638 7.27848 3.14274C6.29374 3.63186 5.51712 4.19883 4.75065 4.99361C3.35476 6.44302 2.50876 8.22619 2.20251 10.3458C2.05362 11.3748 2.0103 11.5847 2.0015 16.8408C1.99812 18.5928 2.0015 20.8986 2.0015 23.9914C2.0015 33.1712 2.01166 35.8554 2.05565 36.3767C2.20793 38.2113 2.49556 39.3656 3.10468 40.6282C4.26877 43.045 6.49204 44.8593 9.11124 45.5363C10.0182 45.7698 11.0198 45.8985 12.3057 45.9594C12.8505 45.9831 18.4036 46 23.9601 46C29.5166 46 35.0731 45.9932 35.6044 45.9662C37.0934 45.8961 37.958 45.78 38.9139 45.5329C41.5501 44.8525 43.7327 43.0653 44.9205 40.6146C45.5178 39.3825 45.8207 38.1843 45.9577 36.4454C45.9875 36.0663 46 30.0219 46 23.9856C46 17.9483 45.9865 11.9151 45.9567 11.5359C45.8179 9.76903 45.5151 8.58093 44.8985 7.32513C44.3926 6.29713 43.8309 5.52944 43.0153 4.74448C41.5599 3.35396 39.7799 2.50774 37.6588 2.20174C36.6311 2.05314 36.4264 2.00914 31.1677 2H24.0072Z" fill="url(#paint1_radial_404_3127)"/><path d="M24.0015 8C19.6561 8 19.1108 8.019 17.4041 8.09667C15.7007 8.17467 14.5381 8.44433 13.5207 8.84C12.4684 9.24867 11.5757 9.79533 10.6864 10.685C9.79635 11.5743 9.24968 12.467 8.83968 13.519C8.443 14.5367 8.173 15.6997 8.09633 17.4023C8.02 19.109 8 19.6547 8 24C8 28.3453 8.01933 28.889 8.09667 30.5957C8.175 32.299 8.44467 33.4617 8.84001 34.479C9.24901 35.5313 9.79569 36.424 10.6854 37.3133C11.5744 38.2033 12.467 38.7513 13.5187 39.16C14.5367 39.5557 15.6997 39.8253 17.4028 39.9033C19.1094 39.981 19.6545 40 23.9995 40C28.3452 40 28.8889 39.981 30.5956 39.9033C32.2989 39.8253 33.4629 39.5557 34.4809 39.16C35.533 38.7513 36.4243 38.2033 37.3133 37.3133C38.2033 36.424 38.75 35.5313 39.16 34.4793C39.5533 33.4617 39.8233 32.2987 39.9033 30.596C39.98 28.8893 40 28.3453 40 24C40 19.6547 39.98 19.1093 39.9033 17.4027C39.8233 15.6993 39.5533 14.5367 39.16 13.5193C38.75 12.467 38.2033 11.5743 37.3133 10.685C36.4233 9.795 35.5333 9.24833 34.4799 8.84C33.4599 8.44433 32.2966 8.17467 30.5932 8.09667C28.8866 8.019 28.3432 8 23.9965 8H24.0015ZM22.5662 10.8833C22.9922 10.8827 23.4675 10.8833 24.0015 10.8833C28.2735 10.8833 28.7799 10.8987 30.4669 10.9753C32.0269 11.0467 32.8736 11.3073 33.4376 11.5263C34.1843 11.8163 34.7166 12.163 35.2763 12.723C35.8363 13.283 36.183 13.8163 36.4736 14.563C36.6926 15.1263 36.9536 15.973 37.0246 17.533C37.1013 19.2197 37.118 19.7263 37.118 23.9963C37.118 28.2663 37.1013 28.773 37.0246 30.4597C36.9533 32.0197 36.6926 32.8663 36.4736 33.4297C36.1836 34.1763 35.8363 34.708 35.2763 35.2677C34.7163 35.8277 34.1846 36.1743 33.4376 36.4643C32.8743 36.6843 32.0269 36.9443 30.4669 37.0157C28.7802 37.0923 28.2735 37.109 24.0015 37.109C19.7291 37.109 19.2228 37.0923 17.5361 37.0157C15.9761 36.9437 15.1294 36.683 14.5651 36.464C13.8184 36.174 13.2851 35.8273 12.725 35.2673C12.165 34.7073 11.8184 34.1753 11.5277 33.4283C11.3087 32.865 11.0477 32.0183 10.9767 30.4583C10.9 28.7717 10.8847 28.265 10.8847 23.9923C10.8847 19.7197 10.9 19.2157 10.9767 17.529C11.048 15.969 11.3087 15.1223 11.5277 14.5583C11.8177 13.8117 12.165 13.2783 12.725 12.7183C13.2851 12.1583 13.8184 11.8117 14.5651 11.521C15.1291 11.301 15.9761 11.041 17.5361 10.9693C19.0121 10.9027 19.5841 10.8827 22.5662 10.8793V10.8833ZM32.5423 13.54C31.4822 13.54 30.6222 14.399 30.6222 15.4593C30.6222 16.5193 31.4822 17.3793 32.5423 17.3793C33.6023 17.3793 34.4623 16.5193 34.4623 15.4593C34.4623 14.3993 33.6023 13.5393 32.5423 13.5393V13.54ZM24.0015 15.7833C19.4638 15.7833 15.7847 19.4623 15.7847 24C15.7847 28.5377 19.4638 32.215 24.0015 32.215C28.5392 32.215 32.2169 28.5377 32.2169 24C32.2169 19.4623 28.5392 15.7833 24.0015 15.7833ZM24.0015 18.6667C26.9469 18.6667 29.3349 21.0543 29.3349 24C29.3349 26.9453 26.9469 29.3333 24.0015 29.3333C21.0558 29.3333 18.6681 26.9453 18.6681 24C18.6681 21.0543 21.0558 18.6667 24.0015 18.6667Z" fill="white"/><defs><radialGradient id="paint0_radial_404_3127" cx="0" cy="0" r="1" gradientUnits="userSpaceOnUse" gradientTransform="translate(13.6876 49.3889) rotate(-90) scale(43.6073 40.5582)"><stop stop-color="#FFDD55"/><stop offset="0.1" stop-color="#FFDD55"/><stop offset="0.5" stop-color="#FF543E"/><stop offset="1" stop-color="#C837AB"/></radialGradient><radialGradient id="paint1_radial_404_3127" cx="0" cy="0" r="1" gradientUnits="userSpaceOnUse" gradientTransform="translate(-5.37023 5.16969) rotate(78.6806) scale(19.4926 80.3494)"><stop stop-color="#3771C8"/><stop offset="0.128" stop-color="#3771C8"/><stop offset="1" stop-color="#6600FF" stop-opacity="0"/></radialGradient></defs></svg>